<?xml version="1.0" standalone="no"?><!DOCTYPE svg PUBLIC "-//W3C//DTD SVG 1.1//EN" "http://www.w3.org/Graphics/SVG/1.1/DTD/svg11.dtd"><svg t="1715332624232" class="icon" viewBox="0 0 1024 1024" version="1.1" xmlns="http://www.w3.org/2000/svg" p-id="2903" xmlns:xlink="http://www.w3.org/1999/xlink" width="128" height="128"><path d="M614.322902 1024H0l31.228081-202.47059A153.580726 153.580726 0 0 1 183.017031 691.241761h248.28884a153.580726 153.580726 0 0 1 151.788951 130.287649z" fill="#AAD6F9" p-id="2904"></path><path d="M537.53254 365.138687v-9.214843a230.371088 230.371088 0 0 0-460.742177 0v9.214843a53.753254 53.753254 0 0 0 2.559679 107.506508 57.080836 57.080836 0 0 0 6.911132 0 230.371088 230.371088 0 0 0 169.706702 158.700083V716.838549h102.38715v-85.493271a230.371088 230.371088 0 0 0 169.706702-159.467987 57.080836 57.080836 0 0 0 6.911133 0 53.753254 53.753254 0 0 0 2.559679-107.506508z" fill="#F6DAF7" p-id="2905"></path><path d="M307.161451 125.552755a230.371088 230.371088 0 0 0-230.371088 230.371089v51.193575a228.835281 228.835281 0 0 0 55.545029 149.229271A228.323345 228.323345 0 0 0 281.564664 611.89172a230.371088 230.371088 0 0 0 230.371088-230.371089v-51.193575a230.371088 230.371088 0 0 0-55.545029-149.48524A230.371088 230.371088 0 0 0 307.161451 125.552755z" fill="#F9E8F9" p-id="2906"></path><path d="M203.494461 388.431764m19.197591 0l0 0q19.197591 0 19.197591 19.197591l0 38.395181q0 19.197591-19.197591 19.197591l0 0q-19.197591 0-19.197591-19.197591l0-38.395181q0-19.197591 19.197591-19.197591Z" fill="#70BBEF" p-id="2907"></path><path d="M372.43326 388.431764m19.19759 0l0 0q19.197591 0 19.197591 19.197591l0 38.395181q0 19.197591-19.197591 19.197591l0 0q-19.197591 0-19.19759-19.197591l0-38.395181q0-19.197591 19.19759-19.197591Z" fill="#70BBEF" p-id="2908"></path><path d="M520.894628 149.869703c-40.698892-67.063584-122.608613-102.38715-204.774301-104.178925a48.377929 48.377929 0 0 0-15.870008-33.019856 64.759873 64.759873 0 0 0-56.056965-10.238715l56.824868 43.258571C218.340598 47.482553 136.17491 82.038216 93.428275 151.149543 32.763888 249.185239 76.790363 422.475491 76.790363 422.475491L127.983938 307.289947s108.786347 25.596788 180.969288 0a125.424259 125.424259 0 0 0 76.790363-61.944226 98.8036 98.8036 0 0 0 42.746635 48.121961 148.973304 148.973304 0 0 0 71.415038 13.822265L537.53254 422.475491s45.306314-170.218638-16.637912-272.605788z" fill="#94CFF7" p-id="2909"></path><path d="M305.369676 819.225699l49.4018 55.545029L426.954417 691.241761h-67.831487l-53.753254 127.983938z" fill="#70BBEF" p-id="2910"></path><path d="M308.953226 819.225699l-49.4018 55.545029L187.624453 691.241761h67.575519l53.753254 127.983938z" fill="#70BBEF" p-id="2911"></path><path d="M307.161451 819.225699l-53.753254-127.983938h107.506508L307.161451 819.225699z" fill="#FFFFFF" p-id="2912"></path><path d="M947.081141 499.265854a90.868596 90.868596 0 0 0-76.790362 43.514539 90.868596 90.868596 0 0 0-76.790363-43.514539 74.230684 74.230684 0 0 0-76.790363 76.790363 132.079424 132.079424 0 0 0 53.753254 100.595375A341.205179 341.205179 0 0 0 870.290779 729.636943a341.205179 341.205179 0 0 0 99.827471-52.473415 132.079424 132.079424 0 0 0 53.753254-100.595375 74.230684 74.230684 0 0 0-76.790363-77.302299z" fill="#F0A0F2" p-id="2913"></path><path d="M1019.776018 550.203461a72.694877 72.694877 0 0 0-72.438909-51.193575 90.868596 90.868596 0 0 0-76.790363 43.514539 90.868596 90.868596 0 0 0-76.790362-43.514539 74.230684 74.230684 0 0 0-76.790363 76.790363 132.079424 132.079424 0 0 0 53.753254 100.595375c5.887261 4.607422 12.03049 9.214844 18.173719 13.31033H793.500416c112.11393 1.535807 204.774301-59.640515 226.275602-139.502493z" fill="#F5AEF4" p-id="2914"></path><path d="M751.777652 550.203461m-8.958876 0a8.958876 8.958876 0 1 0 17.917752 0 8.958876 8.958876 0 1 0-17.917752 0Z" fill="#FFFFFF" p-id="2915"></path><path d="M737.699419 578.615896c1.791775-10.750651 9.470811-13.054362 13.054361-8.702908s-2.559679 11.262587 2.303711 34.555663S767.903628 640.048186 767.903628 643.887704s-16.125976-14.078233-23.805012-32.763888a61.688258 61.688258 0 0 1-6.399197-32.50792z" fill="#FFFFFF" p-id="2916"></path></svg>